<svg width="375" height="328" viewBox="0 0 375 328" fill="none" xmlns="http://www.w3.org/2000/svg">
<mask id="mask0_66_14489" style="mask-type:alpha" maskUnits="userSpaceOnUse" x="0" y="0" width="375" height="328">
<rect width="375" height="328" fill="url(#paint0_linear_66_14489)"/>
</mask>
<g mask="url(#mask0_66_14489)">
<rect x="-49" y="151.5" width="434" height="176" fill="url(#paint1_linear_66_14489)"/>
<path opacity="0.4" d="M49.6689 212.313C13.2689 207.913 -17.4978 210.48 -28.3311 212.313C-41.6645 215.48 -60.3311 221.113 -28.3311 218.313C11.6689 214.813 85.6689 225.813 77.1689 231.313C68.6689 236.813 -19 230 -30.5 232C-42 234 -37.9978 247.313 -39.3311 255.313L284.669 279.813L303.169 251.313C283.836 251.98 239.169 252.913 215.169 251.313C185.169 249.313 203.669 230.313 245.169 231.313C278.369 232.113 307.336 241.98 317.669 246.813H379.169C380.836 232.313 380.169 203.313 364.169 203.313C344.169 203.313 341.169 212.313 268.669 212.313C196.169 212.313 214.169 198.313 230.669 198.313C247.169 198.313 296.169 194.813 330.669 198.313C365.169 201.813 365.669 196.813 364.169 190.313C362.669 183.813 340.169 190.313 292.169 190.313C244.169 190.313 253.169 173.24 265.669 175.813C278.169 178.386 333.669 181.813 330.669 175.813C327.669 169.813 234.169 173.313 203.669 175.813C173.169 178.313 171.169 182.813 191.169 185.313C211.169 187.813 241.669 181.813 253.169 190.313C264.669 198.813 206.669 192.313 142.169 190.313C77.6689 188.313 78.1689 201.813 102.169 203.313C126.169 204.813 95.1689 217.813 49.6689 212.313Z" fill="url(#paint2_linear_66_14489)"/>
<path d="M321.348 219.159C322.197 216.611 326.301 215.267 328.247 214.913C328.778 214.913 331.007 215.125 335.677 215.974C341.515 217.036 344.699 224.466 338.862 224.997C333.024 225.527 320.286 222.343 321.348 219.159Z" fill="url(#paint3_linear_66_14489)"/>
<path d="M46.8995 195.421C48.0421 195.414 49.0989 195.445 50 195.5L46.8995 195.421C41.0683 195.456 33.0034 196.486 32 200.5C30.5 206.5 17 207.5 8.5 207C0 206.5 -10 208.5 -25.5 208.5C-37.9 208.5 -45.3333 206.167 -48 205V193L46.8995 195.421Z" fill="url(#paint4_linear_66_14489)"/>
<path d="M204 235.5C206.8 231.9 178.167 229.667 163.5 229L98 238.5L110 262.5L150.5 271.5C153.333 267.333 159.9 258.1 163.5 254.5C168 250 180 252 187.5 251C195 250 188.5 244.5 190.5 242.5C192.5 240.5 200.5 240 204 235.5Z" fill="url(#paint5_linear_66_14489)"/>
<path opacity="0.2" d="M65.5 50C45.9 56.8 38.3333 71 34 78.5L82.5 126.5L155.5 122.5C165.5 109.333 183.1 81.1 173.5 73.5C161.5 64 146.5 72 141.5 77C136.5 82 133 79 130 78C127.6 77.2 124.667 78.3333 123.5 79C120.7 69 112 69.5 108 71C106.5 61 90 41.5 65.5 50Z" fill="#96D3FF"/>
<path opacity="0.2" d="M246.5 57.5C226.9 61.9 217 82.6667 214.5 92.5L211.5 121.5L386 88.5C388.167 78.1667 389.1 55.7 375.5 48.5C358.5 39.5 336 63 333.5 60C331 57 325.5 46 311 48.5C296.5 51 291.5 66.5 285.5 67.5C279.5 68.5 271 52 246.5 57.5Z" fill="#96D3FF"/>
<circle cx="183" cy="118.5" r="49" fill="url(#paint6_linear_66_14489)"/>
<path d="M-50 31C-44.5 33.5 -23.5 64.5 -19 69.5C-14.5 74.5 11.9921 140.74 18.5 174.5H-50V31Z" fill="#85DEFA"/>
<path d="M-9.55962 89.4128C0.162804 112.886 14.0349 151.338 18.5 174.5H-45V139.5L-22 96.0001C-17.5209 96.943 -13.0534 93.5327 -9.55962 89.4128Z" fill="#51B8D9"/>
<path d="M139 108.5C141.4 110.5 194 159.833 213 178.5H-49C-38 154.833 -15.3 95.5 -12.5 93.5C-9 91 11.5 82.5 13 81.5C14.5 80.5 32 37.5 34 37.5C36 37.5 80.5 72.5 81.5 75C82.3 77 90.1667 95.5 94 104.5C108 105 136.6 106.5 139 108.5Z" fill="#85DEFA"/>
<path d="M33.4923 37.9293C36.9745 48.0492 43.3563 66.8065 44.5 71C47.6667 74.1666 54.1 80.8 54.5 82C54.7718 82.8153 52.9751 87.6199 51.2785 92.157C49.854 95.9663 48.5 99.5871 48.5 100.5C48.5 102.5 66.5 121 68 122.5C68.9401 123.44 79.5028 125.951 87.8731 127.941C92.8589 129.126 97.0668 130.127 98 130.5C100.188 131.375 125.745 167.494 133.09 178.5H-49C-44.0723 167.898 -36.7965 150.138 -30.0137 133.581C-21.6555 113.179 -14.0457 94.604 -12.5 93.5C-10.3051 91.9322 -1.42453 88.0047 5.26308 85.0471C9.23954 83.2885 12.4407 81.8728 13 81.5C13.6318 81.0788 17.1022 73.2062 21.0574 64.2341C25.9397 53.1586 31.5607 40.4075 33.4923 37.9293Z" fill="#51B8D9"/>
<path d="M48.592 100.835C43.7947 104.779 34.666 112.334 33.5 113.5C32 115 27 128 26.5 130C26.2656 130.938 14.8234 143.413 2.01192 157.381C-4.49413 164.474 -11.3533 171.952 -17.2771 178.5H-49C-44.0723 167.898 -36.7965 150.138 -30.0137 133.581C-21.6555 113.179 -14.0457 94.604 -12.5 93.5C-10.3051 91.9322 -1.42453 88.0047 5.26308 85.0471C9.23948 83.2886 12.4407 81.8728 13 81.5C13.6318 81.0788 17.1022 73.2063 21.0573 64.2343C25.9396 53.1589 31.5607 40.4075 33.4923 37.9293C36.9745 48.0492 43.3563 66.8065 44.5 71C47.6667 74.1666 54.1 80.8 54.5 82C54.7718 82.8153 52.9751 87.6199 51.2785 92.157C49.854 95.9663 48.5 99.5871 48.5 100.5C48.5 100.584 48.5315 100.696 48.592 100.835Z" fill="#5ECCEF"/>
<path d="M44.5001 71C36.0001 81.1667 18.7001 102 17.5001 104C16.5429 105.595 10.4958 106.376 5.7248 106.992C3.01913 107.342 0.723873 107.638 0.000110626 108C-1.34766 108.674 -23.3675 136.122 -39.3418 156.215C-36.3099 148.95 -33.1104 141.141 -30.0136 133.581C-21.6554 113.179 -14.0456 94.604 -12.4999 93.5C-10.305 91.9322 -1.42442 88.0047 5.26319 85.0471C9.23959 83.2886 12.4408 81.8728 13.0001 81.5C13.6319 81.0788 17.1023 73.2063 21.0574 64.2343C25.9397 53.1589 31.5608 40.4075 33.4924 37.9293C36.9746 48.0492 43.3564 66.8065 44.5001 71Z" fill="#73D9F9"/>
<path d="M33.7119 37.6765C47.7834 49.4062 75.8062 73.112 77.0002 75.5C77.9396 77.3787 71.8195 79.2575 66.4996 80.8906C63.3246 81.8653 60.4346 82.7525 59.5002 83.5C58.3102 84.452 62.1047 83.818 66.6777 83.0539C71.7121 82.2128 77.6902 81.214 79.0002 82C80.4572 82.8742 83.7824 90.8815 86.6992 97.9053C88.7872 102.933 90.6658 107.457 91.5002 108.5C92.5549 109.818 105.15 109.885 116.821 109.947C127.282 110.003 137 110.055 137 111C137 112.159 127.098 116.842 118.378 120.966C112.048 123.96 106.341 126.659 105.5 127.5C103.932 129.069 124.341 161.522 135.351 178.5H213C194 159.833 141.4 110.5 139 108.5C136.6 106.5 108 105 94.0002 104.5C90.1669 95.5 82.3002 77 81.5002 75C80.5002 72.5 36.0002 37.5 34.0002 37.5C33.9253 37.5 33.8286 37.5603 33.7119 37.6765Z" fill="#CCF3FF"/>
<path d="M233.915 100.827L232.291 107.3C183.757 126.057 117.97 157.015 72 180.5H385V60.4918L381.209 71.9449L378.502 58.5L374.711 72.9408L372.545 65.4714L370.92 73.4388L367.671 62.4837L364.422 74.4347L361.173 61.9857L357.924 75.4306C345.794 77.4224 325.072 82.2361 316.227 84.3939L315.685 81.9041L312.978 79.9122L315.144 80.4102L312.978 71.4469L310.811 80.9082H312.978L310.811 81.9041L309.187 84.8918L306.479 80.4102L303.772 86.3857L299.439 76.4265L295.649 88.8755C278.753 92.8592 264.06 97.5068 258.825 99.3327L257.201 93.3571L255.035 91.3653L257.201 91.8633L254.493 81.9041L251.785 100.827L249.619 94.3531L247.453 102.32L244.746 90.3694L240.955 104.81L236.081 88.8755L233.915 99.3327H236.081L233.915 100.827Z" fill="url(#paint7_linear_66_14489)"/>
<path opacity="0.4" d="M315.76 84.5C309.936 85.7 300.16 88 296 89L308.48 95.5L304.84 88.5L312.12 91.5L310.04 87.5L322 91L315.76 84.5Z" fill="url(#paint8_linear_66_14489)"/>
<path d="M202.5 155.5C169.3 161.5 101.333 176 78 181H385V118C370.6 119.2 340 123.167 329.5 125L326.5 113L323.5 126C317.5 127.2 307.333 129.167 303 130L298.5 110L293.5 132L290 122L287 134C266.6 138 245.667 143.667 239.5 145.5L236.5 134L233 147.5L230.5 141L228 139H230L227 129.5L223 150L219.5 143.5L216.5 151L211.5 139.5L209 153L205.5 143L204 149.5H205.5L204 151L202.5 155.5Z" fill="#6ECC5F"/>
<path opacity="0.2" d="M303 130L287 134L301 142L295.5 134.5L318.5 139.5L303 130Z" fill="url(#paint9_linear_66_14489)"/>
<path d="M58.7351 171.193C59.5187 171.296 60.2744 171.398 61.0001 171.5C61.8647 171.621 62.7723 171.746 63.7189 171.875L61.0001 161L58.7351 171.193Z" fill="#20817B"/>
<path d="M81.9512 174.245C82.7881 174.35 83.6326 174.456 84.4836 174.563L83.0001 169L81.9512 174.245Z" fill="#20817B"/>
<path d="M-8.94482 164.922C3.38936 165.817 17.2743 166.939 30.0125 168.118L23.0001 137L21.0001 166.5L17.0001 151.5L15.0001 163L10.0001 127.5L6.00012 145.346L9.00012 145L5.18115 149L3.50012 156.5L0.000118256 139.5L-8.94482 164.922Z" fill="#20817B"/>
<path d="M31.719 168.276C38.8101 168.941 45.5015 169.621 51.3159 170.287L50.0001 164L47.0001 161L49.5001 161.5L46.0001 146L41.0001 169L38.0001 159L35.5001 156H37.1001L35.0001 149L32.5001 162.5L35.5001 162L32.3301 164.687L31.719 168.276Z" fill="#20817B"/>
<path d="M54 196C50.8 198 -10.6667 198.833 -41 199V162C-24.5 162.5 36 167 61 170.5C86 174 147 181 146.5 181.5C146 182 114.5 183 94 184C73.5 185 38 185 42.5 187C47 189 58 193.5 54 196Z" fill="url(#paint10_linear_66_14489)"/>
<path d="M377 181H273.5C279.235 179.235 289.29 176.477 299 173.882L302.5 156L305 172.288C310.658 170.792 315.834 169.444 319.5 168.5L325.5 134.5L333.5 169L335.5 157.5L342 152.5L336 154L345 104L349.5 143.5L345 143L350 146.5L352 167.5H355.5L360 133L366.5 166L373.5 128.5L377 181Z" fill="#20817B"/>
<path d="M6.65786 195.155C6.65786 193.155 5.99119 188.655 5.65786 186.655C-9.84214 184.155 -41.2421 179.655 -42.8421 181.655C-44.8421 184.155 -48.8421 191.155 -47.8421 193.655C-46.8421 196.155 -39.8421 200.155 -35.3421 201.155C-30.8421 202.155 -6.34214 204.155 -3.34214 202.655C-0.34214 201.155 6.65786 197.655 6.65786 195.155Z" fill="#DE7588"/>
<path d="M-35.8421 195.655C-39.4421 194.055 -42.3421 188.655 -43.3421 186.155C-44.8058 183.155 -40.8421 177.655 -35.8421 176.655C-30.8421 175.655 -16.3421 174.655 -9.84206 176.655C-3.34206 178.655 4.65794 182.155 5.65794 186.155C6.65794 190.155 -2.84206 197.655 -5.84206 198.155C-6.71588 198.3 -20.2441 184.597 -23.5 184.5L-22.6086 190.408C-21.2927 194.001 -19.8041 197.88 -21.5 197.757C-27.661 197.311 -33.7314 196.593 -35.8421 195.655Z" fill="#FFAA96"/>
<path d="M2.50016 199.5C2.90016 197.5 3.3335 196 3.50016 195.5L28 196.5C28.3333 197.167 29 198.7 29 199.5C29 200.5 28.5 201.5 25.5 202.5C22.5 203.5 13.0002 203.5 10.0002 203C7.00016 202.5 2.00016 202 2.50016 199.5Z" fill="#EA8194"/>
<path d="M3.50018 195.5C4.30018 193.5 7.16685 191.333 8.50018 190.5C11.0004 188.617 18 189 21.5 190.5C25 192 30 197 27.5 198.5C25 200 14.0002 201 11.5002 200.5C9.00018 200 2.50018 198 3.50018 195.5Z" fill="#FFBBAC"/>
<path d="M310.5 174C309.7 174.8 307.833 179.333 307 181.5L325.5 177.5C324.167 175.833 321.2 172.5 320 172.5C318.5 172.5 311.5 173 310.5 174Z" fill="#FFAA96"/>
<path d="M306.445 180C326.845 174 369.333 170.5 385 169.5V209C383 210 371.445 209.5 355.445 202C339.445 194.5 296.945 193.5 291.445 193C285.945 192.5 280.945 187.5 306.445 180Z" fill="url(#paint11_linear_66_14489)"/>
<path d="M358.397 194.746C361.369 194.321 377.924 191.738 385 190.5V221.812H356.274C353.09 221.812 341.945 220.751 339.822 219.159C337.699 217.567 334.515 213.321 336.107 212.259C337.699 211.198 354.682 195.276 358.397 194.746Z" fill="#FFAA96"/>
<path d="M324.532 217.036C324.957 215.762 328.07 210.844 329.839 208.014C331.431 206.422 339.923 206.952 340.984 208.544C342.045 210.136 346.291 218.628 345.23 220.22C344.168 221.812 335.677 222.343 333.023 221.812C330.37 221.282 324.001 218.628 324.532 217.036Z" fill="#FFAA96"/>
<path d="M341.2 208.889C342.521 211.101 346.229 218.721 345.23 220.22C344.432 221.417 339.435 222.014 335.876 222.011C335.477 220.269 334.935 217.685 334.615 215.444C334.269 213.021 338.131 210.434 341.2 208.889Z" fill="#DE7588"/>
<path d="M165 202.5C163.8 200.9 162.166 200.833 161.5 201C159 202 159 205 160 206.5C160.8 207.7 164 212 165.5 214H169.5C168.5 210.833 166.2 204.1 165 202.5Z" fill="#D16148"/>
<path d="M193.5 238V224.5L185 226.5V238C185 240 193.5 240 193.5 238Z" fill="#A7452E"/>
<path d="M175.5 246V232.5L167 234.5V246C167 248 175.5 248 175.5 246Z" fill="#A7452E"/>
<path d="M155.5 254V240.5L147 242.5V254C147 256 155.5 256 155.5 254Z" fill="#A7452E"/>
<path d="M199.5 213.5C196.3 214.3 142 240.667 114.5 251C66.8333 251.333 -26.7999 245.6 -13.9999 242C2.00006 237.5 109 211.5 113 211C116.2 210.6 172 212.5 199.5 213.5Z" fill="#A7452E"/>
<path opacity="0.4" d="M10.4688 235.718C18.1748 233.794 27.0085 231.61 36.1889 229.356C43.011 229.251 51.3042 229.216 55.0002 229.5C57.0754 229.66 61.087 229.768 65.6197 229.891C75.285 230.153 87.3195 230.479 88.0002 231.5C88.5729 232.359 79.4701 232.07 69.7078 231.76C62.424 231.529 54.7732 231.286 50.5002 231.5C40.5002 232 33.0002 236 48.5002 236.5C60.9002 236.9 71.6668 238.667 75.5002 239.5C83.0002 240.788 59.5002 241.5 52.0002 239.5C46.5709 238.052 24.0827 236.495 10.4688 235.718Z" fill="#7D2D1B"/>
<g opacity="0.4">
<path d="M139.5 238.5C113.667 237.5 60.9003 235.2 56.5003 234C51.0003 232.5 117 236 124.5 236.5C132 237 130.5 233 123 232C115.5 231 78.5003 228 69.0003 228H41.7173C46.1035 226.926 50.5324 225.844 54.9217 224.776C71.669 226.35 102.209 229.123 110.5 229.5C113.649 229.643 118.887 230.114 124.901 230.655C135.693 231.625 148.985 232.82 157.185 232.748C150.318 235.863 143.249 239.025 136.505 241.951L139.5 238.5Z" fill="#7D2D1B"/>
<path d="M78.2591 219.123C80.9146 219.16 83.802 219.208 86.7723 219.257C93.8869 219.374 101.478 219.5 107.5 219.5C115.777 219.5 134.01 220.685 150.946 221.786C161.09 222.446 170.77 223.075 177.566 223.401C174.555 224.792 171.345 226.273 168.007 227.806C164.859 227.015 149.626 227.385 136.428 227.706C130.153 227.859 124.337 228 120.5 228C108 228 97.5001 226 101 224.5C102.34 223.926 104.854 224.378 107.923 224.93C112.868 225.819 119.255 226.968 124.5 224.5C130.344 221.75 101.916 220.89 82.2801 220.297C79.4286 220.211 76.7624 220.13 74.4137 220.05C75.7131 219.737 76.9958 219.428 78.2591 219.123Z" fill="#7D2D1B"/>
<path d="M186.366 219.335C188.837 218.196 191.04 217.183 192.909 216.334C181.243 216.1 162.234 215.777 155 216.5C153.745 216.626 152.537 216.743 151.41 216.853C143.558 217.618 139.632 218 151 218C159.362 218 171.861 218.621 180.78 219.063C182.872 219.167 184.768 219.261 186.366 219.335Z" fill="#7D2D1B"/>
</g>
<path opacity="0.4" d="M134 212C132.833 212.667 129.4 214.4 125 216C123.257 216.634 121.162 217.469 118.923 218.361C114.097 220.284 108.598 222.475 104.5 223.5C98.5 225 106 232.5 121 229.5C130.415 227.617 138.846 224.552 145.425 222.16C149.328 220.741 152.58 219.558 155 219C160.2 217.8 166.833 214.167 169.5 212.5L169.303 212.444C157.158 212.035 144.582 211.633 134.391 211.348L134 212Z" fill="url(#paint12_linear_66_14489)"/>
<path d="M199.5 218.5V213.5L113 245.5L114.5 252.5C118 251 199.5 219.5 199.5 218.5Z" fill="#7D2D1B"/>
<path d="M199.5 223.5V218.5L114.5 252.5C114.167 254.667 113.9 258.8 115.5 258C117.5 257 199.5 224.5 199.5 223.5Z" fill="#6A2414"/>
<path d="M269.5 243.5C267 246.5 252 264 252.5 267C253.483 272.901 375.707 265.757 376 264C376.5 261 368.5 235 365.5 234.5C362.5 234 325 224.5 318.5 225.5C312 226.5 272 240.5 269.5 243.5Z" fill="url(#paint13_linear_66_14489)"/>
<path d="M268.638 244.527C269 244.096 269.293 243.748 269.5 243.5C269.753 243.197 270.389 242.781 271.334 242.278C283.679 244.814 302.92 249.06 304 250.5C305.381 252.341 268.202 263.081 252.535 267.116C252.518 267.078 252.507 267.039 252.5 267C252.041 264.248 264.623 249.298 268.638 244.527Z" fill="#105157"/>
<path d="M114.382 242.556C86.0559 236.489 6.30381 237.837 -49 237.5V327.5H385V246.601C377.918 248.624 303.056 254.185 263.601 255.702L262.412 255.748C223.246 257.254 178.996 258.956 165.977 255.702C152.825 252.416 142.709 248.624 114.382 242.556Z" fill="url(#paint14_linear_66_14489)"/>
<path d="M3.5 248.998C-20.5 246.598 -40.5 249.998 -47.5 251.998V264.498C-41.1667 262.665 -25.7 260.098 3.5 264.498C32.7 268.898 67.3333 266.331 81 264.498L128 248.998C108.5 253.498 68 243.998 51.5 248.998C35 253.998 33.5 251.998 3.5 248.998Z" fill="url(#paint15_linear_66_14489)"/>
<path opacity="0.3" d="M138 274.5C143.2 271.3 141.667 265.5 139 263L82 286.5C82.1667 290.167 85.2 297 96 295C109.5 292.5 116 281.5 121 280C126 278.5 131.5 278.5 138 274.5Z" fill="url(#paint16_linear_66_14489)"/>
<path opacity="0.3" d="M153.268 294.364C123.303 302.667 57.2127 305.731 27.9133 306.225C-3.25064 306.225 -35.0139 301.942 -47 299.801V325.5H385V276.572C382.836 276.737 369.118 278.253 331.562 282.997C284.616 288.928 237.671 279.043 226.184 273.607C214.697 268.171 190.725 283.986 153.268 294.364Z" fill="url(#paint17_linear_66_14489)"/>
<path opacity="0.3" d="M151.025 278.274C151.425 275.874 153.858 275.274 155.025 275.274C181.192 273.607 234.625 270.574 239.025 271.774C244.525 273.274 242.025 278.274 237.025 279.774C232.025 281.274 223.525 287.274 206.025 286.274C188.525 285.274 184.525 281.274 171.025 282.274C157.525 283.274 150.525 281.274 151.025 278.274Z" fill="url(#paint18_linear_66_14489)"/>
<path d="M133.287 258.06C124.887 256.06 119.787 259.894 118.287 262.06C113.287 267.56 114.287 274.06 119.287 276.06C124.287 278.06 135.287 277.06 140.287 271.56C145.287 266.06 143.787 260.56 133.287 258.06Z" fill="url(#paint19_linear_66_14489)"/>
<path d="M95.0002 290.5C83.0002 291.5 77.5 290.069 74.5004 286C71.5007 281.931 70.1307 272.398 79.0001 265.5C88.0002 258.5 104.336 256.54 111 258.5C119.501 261 122.5 268.5 121 275C119.5 281.5 109.45 289.296 95.0002 290.5Z" fill="url(#paint20_linear_66_14489)"/>
<path d="M91.6406 259.605C98.172 258.791 106.919 258.408 112 260.5C117.783 262.881 120.36 269.529 121.206 273.925C122.156 267.694 119.036 260.863 111.001 258.5C106.894 257.292 99.1134 257.573 91.6406 259.605Z" fill="url(#paint21_linear_66_14489)"/>
<path d="M158.965 272.232L165.965 272.732C168.765 263.532 177.132 264.565 180.965 266.232C184.465 262.732 194.465 252.732 209.465 256.232C224.465 259.732 222.465 266.232 227.965 266.232C233.465 266.232 235.465 267.232 239.465 272.232C243.465 277.232 239.965 277.232 200.465 278.232C160.965 279.232 156.465 278.232 153.465 277.232C150.465 276.232 151.965 271.732 158.965 272.232Z" fill="url(#paint22_linear_66_14489)"/>
<path d="M102.111 284.303C73.4686 277.143 50.5123 287.287 42.6145 293.254V326.951H142.127C140.723 315.719 130.754 291.464 102.111 284.303Z" fill="url(#paint23_linear_66_14489)"/>
<path d="M64.5708 283.859C81.0142 282.685 105.233 283.547 116.327 293.254C128.86 304.221 135.081 319.376 137.021 326.951H142.126C140.722 315.719 130.754 291.464 102.111 284.303C87.7838 280.722 74.8795 281.469 64.5708 283.859Z" fill="url(#paint24_linear_66_14489)"/>
<path d="M-49 248.522C27.6613 247.258 54.1979 300.647 57.8835 327.5H-49V248.522Z" fill="#105157"/>
<path d="M319.691 267.088C275.788 270.852 267.252 308.727 268.471 327.194H384.5V236.774C347.706 229.666 325.963 254.022 319.691 267.088Z" fill="#105157"/>
<path d="M279.969 298.997C282.757 289.589 295.649 270.146 324.918 267.637C326.311 264.153 331.503 254.571 341.12 244.118C341.152 244.083 341.184 244.048 341.215 244.013C330.074 250.875 322.881 260.442 319.691 267.088C291.363 269.517 277.759 286.147 272 302.602L279.969 298.997Z" fill="url(#paint25_linear_66_14489)"/>
<path d="M237.634 327.108H299.83C301.747 317.874 296.694 298.884 282.06 296.794C267.426 294.703 259.586 304.285 257.495 309.337C243.279 306.829 238.331 320.139 237.634 327.108Z" fill="url(#paint26_linear_66_14489)"/>
<path d="M142.5 211.5C141.3 209.5 141.333 206.667 141.5 205.5L150.5 203C151.333 203.5 153.2 204.4 154 204L159 201.5C161 200.5 162 201 163 202C164 203 164 205.5 163.5 206.5C163 207.5 158.5 213.5 156 214C153.5 214.5 152.5 213.5 149.5 214C146.5 214.5 144 214 142.5 211.5Z" fill="#3D1D00"/>
<path d="M134 210.5C134.8 209.3 135.333 198.5 136 193L139.5 195L141 197C139.5 201.333 137.5 209.4 137.5 211C137.5 213 137 214 136 214H131C128.5 214 130 213 131 212.5C132.294 211.853 133.333 211.5 134 210.5Z" fill="#D16148"/>
<path d="M149 181C149 178.6 148.667 176.333 148.5 175.5H142.5L140 188.5L146.5 188C146.333 187 146.1 184.9 146.5 184.5C147 184 147.5 184.5 148 184.5C148.5 184.5 149 184 149 181Z" fill="#D16148"/>
<path d="M149.5 186.5H144.5L138 194.5L141 202V206C148 207.5 152 205 152 204.5C152 204 152 193 151.5 190.5C151 188 151 186.5 149.5 186.5Z" fill="#FCCA49"/>
<path d="M156.5 215H161C162.803 215 162.802 214.302 162 213.5C161 212.5 158 212.5 157.5 211.5C157 210.5 154 201.5 153 195C152 188.5 151 187 150.5 187C150 187 148.5 188 148 190C147.5 192 147 193.5 148.5 198.5C150 203.5 152.5 208.5 153.5 212C154.357 215 155.382 215 156.5 215Z" fill="#D16148"/>
<path d="M146 178.5C146.8 178.5 147.333 179.167 147.5 179.5C151 175 148.5 173 144.5 173C140.5 173 138.5 175.5 138 178C137.5 180.5 137 182.5 135.5 186C134 189.5 134.5 194 135.5 195.5C136.5 197 140 197.5 142 196.5C144 195.5 143.5 192.5 145 189C146.2 186.2 146.833 183.167 147 182C144.5 181 145 178.5 146 178.5Z" fill="#1B1E57"/>
<path opacity="0.4" d="M258.5 99.5C252.9 101.5 238.333 105.667 232.5 107.5L249 116.5L243 107.5L254 112.5L249.5 105L258 108.5L254 103.5L269.5 106L258.5 99.5Z" fill="url(#paint27_linear_66_14489)"/>
<path opacity="0.2" d="M239.5 145.5C235.5 146.7 213.167 152.667 202.5 155.5L212.5 163L210 156.5L222 164L218 155L226.5 159L224 153L241.5 163L233.5 150L244 153L239.5 145.5Z" fill="url(#paint28_linear_66_14489)"/>
<path opacity="0.2" d="M329.5 125L323.5 126L337 132.5L329.5 125Z" fill="url(#paint29_linear_66_14489)"/>
</g>
<defs>
<linearGradient id="paint0_linear_66_14489" x1="187.5" y1="0" x2="187.5" y2="328" gradientUnits="userSpaceOnUse">
<stop offset="0.512096" stop-color="white"/>
<stop offset="1" stop-color="#F0EAEC"/>
</linearGradient>
<linearGradient id="paint1_linear_66_14489" x1="161.703" y1="185.67" x2="167.585" y2="276.038" gradientUnits="userSpaceOnUse">
<stop stop-color="#6CE1E1"/>
<stop offset="1" stop-color="#3AC2A8"/>
</linearGradient>
<linearGradient id="paint2_linear_66_14489" x1="160.718" y1="193.335" x2="145.925" y2="278.444" gradientUnits="userSpaceOnUse">
<stop stop-color="#74F3F3"/>
<stop offset="1" stop-color="#4FDFC3"/>
</linearGradient>
<linearGradient id="paint3_linear_66_14489" x1="322.161" y1="225.652" x2="337.584" y2="210.355" gradientUnits="userSpaceOnUse">
<stop stop-color="#4EBFBC"/>
<stop offset="1" stop-color="#329B9A" stop-opacity="0"/>
</linearGradient>
<linearGradient id="paint4_linear_66_14489" x1="-44.8047" y1="209.647" x2="-24.1754" y2="158.689" gradientUnits="userSpaceOnUse">
<stop stop-color="#4EBFBC"/>
<stop offset="1" stop-color="#329B9A" stop-opacity="0"/>
</linearGradient>
<linearGradient id="paint5_linear_66_14489" x1="102.5" y1="274" x2="165.919" y2="196.901" gradientUnits="userSpaceOnUse">
<stop stop-color="#4EBFBC"/>
<stop offset="1" stop-color="#329B9A" stop-opacity="0"/>
</linearGradient>
<linearGradient id="paint6_linear_66_14489" x1="183" y1="69.5" x2="183" y2="167.5" gradientUnits="userSpaceOnUse">
<stop stop-color="#FDC971"/>
<stop offset="1" stop-color="#FCFBA5"/>
</linearGradient>
<linearGradient id="paint7_linear_66_14489" x1="202.507" y1="119.251" x2="276.441" y2="176.919" gradientUnits="userSpaceOnUse">
<stop stop-color="#BADD66"/>
<stop offset="1" stop-color="#AAD248"/>
</linearGradient>
<linearGradient id="paint8_linear_66_14489" x1="297.102" y1="96.1471" x2="313.668" y2="77.0953" gradientUnits="userSpaceOnUse">
<stop stop-color="#4EBFBC"/>
<stop offset="1" stop-color="#329B9A" stop-opacity="0.47"/>
</linearGradient>
<linearGradient id="paint9_linear_66_14489" x1="288.335" y1="142.706" x2="306.051" y2="120.079" gradientUnits="userSpaceOnUse">
<stop stop-color="#2D8280"/>
<stop offset="1" stop-color="#187372" stop-opacity="0.47"/>
</linearGradient>
<linearGradient id="paint10_linear_66_14489" x1="-18" y1="198.5" x2="21.5183" y2="110.952" gradientUnits="userSpaceOnUse">
<stop stop-color="#105157"/>
<stop offset="1" stop-color="#12A961"/>
</linearGradient>
<linearGradient id="paint11_linear_66_14489" x1="340" y1="201" x2="320.309" y2="163.553" gradientUnits="userSpaceOnUse">
<stop stop-color="#2B8659"/>
<stop offset="1" stop-color="#35B676"/>
</linearGradient>
<linearGradient id="paint12_linear_66_14489" x1="135.964" y1="211.348" x2="131.5" y2="233.5" gradientUnits="userSpaceOnUse">
<stop stop-color="#541608"/>
<stop offset="1" stop-color="#541608" stop-opacity="0"/>
</linearGradient>
<linearGradient id="paint13_linear_66_14489" x1="303.614" y1="257.464" x2="316.151" y2="222.078" gradientUnits="userSpaceOnUse">
<stop stop-color="#2B8659"/>
<stop offset="1" stop-color="#2D9E66"/>
</linearGradient>
<linearGradient id="paint14_linear_66_14489" x1="131.075" y1="303.23" x2="147.248" y2="224.857" gradientUnits="userSpaceOnUse">
<stop stop-color="#2B8659"/>
<stop offset="1" stop-color="#2D9E66"/>
</linearGradient>
<linearGradient id="paint15_linear_66_14489" x1="-40" y1="247.998" x2="72" y2="259.998" gradientUnits="userSpaceOnUse">
<stop stop-color="#56B961"/>
<stop offset="1" stop-color="#56B961" stop-opacity="0"/>
</linearGradient>
<linearGradient id="paint16_linear_66_14489" x1="104.258" y1="281.979" x2="141.897" y2="259.573" gradientUnits="userSpaceOnUse">
<stop stop-color="#0A393E"/>
<stop offset="1" stop-color="#0B8148"/>
</linearGradient>
<linearGradient id="paint17_linear_66_14489" x1="21.4208" y1="396.173" x2="225.517" y2="270.721" gradientUnits="userSpaceOnUse">
<stop stop-color="#0A393E"/>
<stop offset="1" stop-color="#0B8148"/>
</linearGradient>
<linearGradient id="paint18_linear_66_14489" x1="185.12" y1="280.23" x2="200.955" y2="248.82" gradientUnits="userSpaceOnUse">
<stop stop-color="#0A393E"/>
<stop offset="1" stop-color="#0B8148"/>
</linearGradient>
<linearGradient id="paint19_linear_66_14489" x1="123" y1="272" x2="121.571" y2="233.994" gradientUnits="userSpaceOnUse">
<stop stop-color="#105157"/>
<stop offset="1" stop-color="#12A961"/>
</linearGradient>
<linearGradient id="paint20_linear_66_14489" x1="90.6208" y1="277.151" x2="114.484" y2="241.324" gradientUnits="userSpaceOnUse">
<stop stop-color="#105157"/>
<stop offset="1" stop-color="#12A961"/>
</linearGradient>
<linearGradient id="paint21_linear_66_14489" x1="86.0495" y1="279.012" x2="113.34" y2="255.713" gradientUnits="userSpaceOnUse">
<stop stop-color="#105157"/>
<stop offset="1" stop-color="#12A961"/>
</linearGradient>
<linearGradient id="paint22_linear_66_14489" x1="177.314" y1="272.702" x2="176.678" y2="227.559" gradientUnits="userSpaceOnUse">
<stop stop-color="#105157"/>
<stop offset="1" stop-color="#12A961"/>
</linearGradient>
<linearGradient id="paint23_linear_66_14489" x1="79.8703" y1="308.298" x2="136.345" y2="267.935" gradientUnits="userSpaceOnUse">
<stop stop-color="#105157"/>
<stop offset="1" stop-color="#12A961"/>
</linearGradient>
<linearGradient id="paint24_linear_66_14489" x1="49.9856" y1="341.167" x2="136.078" y2="283.44" gradientUnits="userSpaceOnUse">
<stop stop-color="#105157"/>
<stop offset="1" stop-color="#12A961"/>
</linearGradient>
<linearGradient id="paint25_linear_66_14489" x1="312.374" y1="307.104" x2="343.551" y2="246.606" gradientUnits="userSpaceOnUse">
<stop stop-color="#105157"/>
<stop offset="1" stop-color="#1AC071"/>
</linearGradient>
<linearGradient id="paint26_linear_66_14489" x1="279.969" y1="322.697" x2="234.897" y2="277.131" gradientUnits="userSpaceOnUse">
<stop stop-color="#105157"/>
<stop offset="1" stop-color="#12A961"/>
</linearGradient>
<linearGradient id="paint27_linear_66_14489" x1="235.504" y1="117.5" x2="261.354" y2="91.2358" gradientUnits="userSpaceOnUse">
<stop stop-color="#4EBFBC"/>
<stop offset="1" stop-color="#329B9A" stop-opacity="0.47"/>
</linearGradient>
<linearGradient id="paint28_linear_66_14489" x1="204.259" y1="165.088" x2="232.285" y2="134.498" gradientUnits="userSpaceOnUse">
<stop stop-color="#2D8280"/>
<stop offset="1" stop-color="#187372" stop-opacity="0.47"/>
</linearGradient>
<linearGradient id="paint29_linear_66_14489" x1="324.072" y1="132.941" x2="335.378" y2="123.039" gradientUnits="userSpaceOnUse">
<stop stop-color="#2D8280"/>
<stop offset="1" stop-color="#187372" stop-opacity="0.47"/>
</linearGradient>
</defs>
</svg>
